<svg id="Capa_1" enable-background="new 0 0 512 512" height="512" viewBox="0 0 512 512" width="512" xmlns="http://www.w3.org/2000/svg" xmlns:xlink="http://www.w3.org/1999/xlink"><linearGradient id="SVGID_1_" gradientUnits="userSpaceOnUse" x1="256" x2="256" y1="488.5" y2="23.5"><stop offset="0" stop-color="#a93aff"/><stop offset="1" stop-color="#ff81ff"/></linearGradient><linearGradient id="SVGID_2_" gradientUnits="userSpaceOnUse" x1="256" x2="256" y1="428.534" y2="98.5"><stop offset="0" stop-color="#ffbef9"/><stop offset="1" stop-color="#fff1ff"/></linearGradient><g><g><g><path d="m120 248.5c-66.182 0-120 53.818-120 120s53.818 120 120 120 120-53.818 120-120-53.818-120-120-120zm272 0c-66.182 0-120 53.818-120 120s53.818 120 120 120 120-53.818 120-120-53.818-120-120-120zm-16-105c0-66.182-53.818-120-120-120s-120 53.818-120 120 53.818 120 120 120 120-53.818 120-120z" fill="url(#SVGID_1_)"/></g></g><g><g><path d="m167.432 369.35c-7.822-2.725-16.348 1.318-19.16 9.141-4.219 11.982-15.586 20.01-28.271 20.01s-24.053-8.027-28.271-20.01c-2.813-7.822-11.338-11.953-19.16-9.141-7.793 2.783-11.895 11.338-9.141 19.16 8.466 23.906 31.2 39.99 56.571 39.99s48.105-16.084 56.572-39.99c2.754-7.822-1.347-16.377-9.14-19.16zm281.14 39.14c-8.467-23.906-31.201-39.99-56.572-39.99s-48.105 16.084-56.572 39.99c-2.754 7.822 1.348 16.377 9.141 19.16 7.881 2.813 16.377-1.318 19.16-9.141 4.219-11.982 15.586-20.01 28.271-20.01s24.053 8.027 28.271 20.01c2.814 7.88 11.417 11.857 19.16 9.141 7.794-2.783 11.895-11.337 9.141-19.16zm-358.572-69.99c8.284 0 15-6.716 15-15s-6.716-15-15-15-15 6.716-15 15 6.716 15 15 15zm60 0c8.284 0 15-6.716 15-15s-6.716-15-15-15-15 6.716-15 15 6.716 15 15 15zm212 0c8.284 0 15-6.716 15-15s-6.716-15-15-15-15 6.716-15 15 6.716 15 15 15zm60 0c8.284 0 15-6.716 15-15s-6.716-15-15-15-15 6.716-15 15 6.716 15 15 15zm-196-210c8.284 0 15-6.716 15-15s-6.716-15-15-15-15 6.716-15 15 6.716 15 15 15zm60-30c-8.284 0-15 6.716-15 15s6.716 15 15 15 15-6.716 15-15-6.716-15-15-15zm0 60h-60c-8.291 0-15 6.709-15 15s6.709 15 15 15h60c8.291 0 15-6.709 15-15s-6.709-15-15-15z" fill="url(#SVGID_2_)"/></g></g></g></svg>