<svg id="Smart_control" height="512" viewBox="0 0 64 64" width="512" xmlns="http://www.w3.org/2000/svg" data-name="Smart control"><path d="m59 33v28h-42v-27l21-8z" fill="#4a80aa"/><path d="m61 36-23-8-24 8v-5l24-8 23 8z" fill="#e8702e"/><path d="m32 51h12v10h-12z" fill="#d8d7da"/><path d="m36 51h4v4h-4z" fill="#898890"/><path d="m44 51h12v10h-12z" fill="#00d7df"/><path d="m48 51h4v4h-4z" fill="#fff"/><path d="m20 51h12v10h-12z" fill="#6fc991"/><path d="m24 51h4v4h-4z" fill="#fff"/><path d="m38 41h12v10h-12z" fill="#f3ac3c"/><path d="m42 41h4v4h-4z" fill="#fff"/><path d="m26 41h12v10h-12z" fill="#e78740"/><path d="m30 41h4v4h-4z" fill="#fff"/><rect fill="#e9e9ea" height="35" rx="2" width="22" x="7" y="8"/><path d="m11 12h14v25h-14z" fill="#2488ff"/><circle cx="18" cy="21" fill="#ff9811" r="3"/><path d="m15 61-1.855-15.2a2 2 0 0 1 .3-1.467l.712-1.068a5 5 0 0 0 .843-2.779v-.415a5 5 0 0 0 -1.464-3.535l-.536-.536 2.272-3.787a1.811 1.811 0 0 0 -.272-2.213 1.811 1.811 0 0 0 -2.213-.272l-3.117 1.872a1 1 0 0 1 -1.222-.15l-1.155-1.157a1 1 0 0 1 -.293-.707v-11.586l-3.857 9.642a2.016 2.016 0 0 0 -.143.743v10.282a4 4 0 0 0 .8 2.4l.66.879a6.005 6.005 0 0 1 1.118 4.586l-1.578 14.468z" fill="#ffcbbe"/><path d="m61.33 30.06-23-8a.967.967 0 0 0 -.65-.01l-7.68 2.56v-14.61a3.009 3.009 0 0 0 -3-3h-18a3.009 3.009 0 0 0 -3 3v7.81l-3.79 9.46a3.051 3.051 0 0 0 -.21 1.12v10.28a5.075 5.075 0 0 0 1 3l.66.88a4.988 4.988 0 0 1 .92 3.87l-1.57 14.47a.975.975 0 0 0 .25.78 1 1 0 0 0 .74.33h11a1 1 0 0 0 1-.99 1 1 0 0 0 1 .99h42a1 1 0 0 0 1-1v-24.29l.67.23a.96.96 0 0 0 .33.06 1 1 0 0 0 .58-.18 1.028 1.028 0 0 0 .42-.82v-5a.992.992 0 0 0 -.67-.94zm-47.33 10.43a3.993 3.993 0 0 1 -.67 2.22l-.71 1.06a2.94 2.94 0 0 0 -.47 2.15l1.72 14.08h-8.75l1.44-13.3a7 7 0 0 0 -1.3-5.35l-.66-.88a3.018 3.018 0 0 1 -.6-1.8v-10.28a.986.986 0 0 1 .07-.38l1.93-4.82v6.4a1.983 1.983 0 0 0 .59 1.41l1.15 1.15a2 2 0 0 0 2.44.31l3.12-1.88a.82.82 0 0 1 1.12 1.12l-2.28 3.79a1.014 1.014 0 0 0 .15 1.22l.54.53a4 4 0 0 1 1.17 2.83zm1.71-11.2a2.828 2.828 0 0 0 -3.44-.42l-.27.16v-16.03h12v23h-9.6c-.05-.05-.09-.11-.14-.15l1.87-3.12a2.828 2.828 0 0 0 -.42-3.44zm.29 31.71a.487.487 0 0 0 -.01-.12l-1.86-15.26a1.015 1.015 0 0 1 .15-.74l.59-.88h1.13zm-.21-19a5.915 5.915 0 0 0 .21-1.51v-.42a6.018 6.018 0 0 0 -.37-2.07h9.37a1 1 0 0 0 1-1v-25a1 1 0 0 0 -1-1h-14a1 1 0 0 0 -1 1v18.23l-.84.51-1.16-1.15v-19.59a1 1 0 0 1 1-1h18a1 1 0 0 1 1 1v31a1 1 0 0 1 -1 1zm11.21 10v2h-2v-2zm-8-1v9h-1v-16h7v6h-5a1 1 0 0 0 -1 1zm12 9h-10v-8h2v3a1 1 0 0 0 1 1h4a1 1 0 0 0 1-1v-3h2zm-4-10v-6a2.974 2.974 0 0 0 2-.78v1.78a1 1 0 0 0 1 1h4a1 1 0 0 0 1-1v-3h2v8zm4-6v-2h2v2zm8 8v2h-2v-2zm4 8h-10v-8h2v3a1 1 0 0 0 1 1h4a1 1 0 0 0 1-1v-3h2zm-4-10v-8h2v3a1 1 0 0 0 1 1h4a1 1 0 0 0 1-1v-3h2v8zm4-6v-2h2v2zm8 8v2h-2v-2zm4 8h-10v-8h2v3a1 1 0 0 0 1 1h4a1 1 0 0 0 1-1v-3h2zm3 0h-1v-9a1 1 0 0 0 -1-1h-5v-9a1 1 0 0 0 -1-1h-20v-8.28l7.99-2.66 20.01 6.95zm2-25.41-.67-.23-21-7.3a.967.967 0 0 0 -.65-.01l-7.68 2.56v-2.89l7.99-2.66 22.01 7.65z"/><path d="m18 17a4 4 0 1 0 4 4 4 4 0 0 0 -4-4zm0 6a2 2 0 1 1 2-2 2 2 0 0 1 -2 2z"/><path d="m44.586 16.586a2 2 0 1 0 2.828 0 2 2 0 0 0 -2.828 0z"/><path d="m50.242 13.757a6 6 0 0 0 -8.484 0l1.414 1.414a4.1 4.1 0 0 1 5.656 0z"/><path d="m53.071 10.929a10 10 0 0 0 -14.142 0l1.414 1.414a8 8 0 0 1 11.314 0z"/><path d="m54.485 9.515 1.415-1.415a14.016 14.016 0 0 0 -19.8 0l1.414 1.414a12.014 12.014 0 0 1 16.971.001z"/></svg>