<?xml version="1.0" encoding="iso-8859-1"?>
<!-- Generator: Adobe Illustrator 19.0.0, SVG Export Plug-In . SVG Version: 6.00 Build 0)  -->
<svg version="1.1" id="Capa_1" xmlns="http://www.w3.org/2000/svg" xmlns:xlink="http://www.w3.org/1999/xlink" x="0px" y="0px"
	 viewBox="0 0 480 480" style="enable-background:new 0 0 480 480;" xml:space="preserve">
<g>
	<path style="fill:#787680;" d="M392,348c-22.091,0-40,17.909-40,40c-0.019,2.688,0.249,5.369,0.8,8
		c4.396,21.65,25.51,35.636,47.16,31.24c15.741-3.196,28.044-15.499,31.24-31.24c0.551-2.631,0.819-5.312,0.8-8
		C432,365.909,414.091,348,392,348L392,348z M392,404c-8.837,0-16-7.163-16-16s7.163-16,16-16s16,7.163,16,16S400.837,404,392,404z"
		/>
	<path style="fill:#787680;" d="M120,348c-22.091,0-40,17.909-40,40c-0.019,2.688,0.249,5.369,0.8,8
		c4.396,21.65,25.51,35.636,47.16,31.24c15.741-3.196,28.044-15.499,31.24-31.24c0.551-2.631,0.819-5.312,0.8-8
		C160,365.909,142.091,348,120,348L120,348z M120,404c-8.837,0-16-7.163-16-16s7.163-16,16-16s16,7.163,16,16S128.837,404,120,404z"
		/>
</g>
<g>
	<path style="fill:#FF3051;" d="M312,148V68H24v256h288V148z M168,292c-53.019,0-96-42.981-96-96s42.981-96,96-96s96,42.981,96,96
		S221.019,292,168,292z"/>
	<path style="fill:#FF3051;" d="M456,324v-56v-24l-64-96h-80v176H456z M344,180h32l40,56h-72V180z"/>
</g>
<path style="fill:#AB2300;" d="M328,60V28H8v32h16h288H328z"/>
<path style="fill:#ACABB1;" d="M312,324H8v64h72c0-22.091,17.909-40,40-40s40,17.909,40,40h192c0-22.091,17.909-40,40-40
	s40,17.909,40,40h40v-64H312z"/>
<g>
	<circle style="fill:#787680;" cx="120" cy="388" r="16"/>
	<circle style="fill:#787680;" cx="392" cy="388" r="16"/>
</g>
<path style="fill:#EBE5DD;" d="M376,180h-32v56h72L376,180z"/>
<g>
	<path style="fill:#FFDA44;" d="M168,100c-53.019,0-96,42.981-96,96s42.981,96,96,96s96-42.981,96-96S221.019,100,168,100z
		 M160,180.312c-0.003,4.859-2.213,9.454-6.008,12.488L120,220v24v-24l33.992-27.2C157.787,189.766,159.997,185.171,160,180.312V164
		c0-8.837-7.163-16-16-16h-8c-8.837,0-16,7.163-16,16c0-8.837,7.163-16,16-16h8c8.837,0,16,7.163,16,16V180.312z M216,228h-40l40-80
		V228z"/>
	<path style="fill:#FFDA44;" d="M176,228h40v-80L176,228z"/>
</g>
<g>
	<path style="fill:#231F20;" d="M472,452H8c-4.418,0-8-3.582-8-8s3.582-8,8-8h464c4.418,0,8,3.582,8,8S476.418,452,472,452z"/>
	<path style="fill:#231F20;" d="M472,316h-8v-72c-0.003-1.58-0.47-3.124-1.344-4.44l-64-96c-1.484-2.225-3.982-3.56-6.656-3.56h-72
		V76h8c4.418,0,8-3.582,8-8V36c0-4.418-3.582-8-8-8H8c-4.418,0-8,3.582-8,8v32c0,4.418,3.582,8,8,8h8v240H8c-4.418,0-8,3.582-8,8v64
		c0,4.418,3.582,8,8,8h64.712c0.088,0.52,0.136,1.088,0.248,1.6c5.275,25.98,30.611,42.764,56.591,37.49
		c18.847-3.827,33.591-18.533,37.465-37.37c0.12-0.544,0.168-1.144,0.272-1.704h177.424c0.088,0.52,0.136,1.088,0.248,1.6
		c5.275,25.98,30.611,42.764,56.591,37.49c18.847-3.826,33.591-18.533,37.465-37.37c0.12-0.544,0.168-1.144,0.272-1.704H472
		c4.418,0,8-3.582,8-8V324C480,319.582,476.418,316,472,316L472,316z M387.72,156L448,246.4V260H344c-4.418,0-8,3.582-8,8
		s3.582,8,8,8h104v40H320V156H387.72z M16,44h304v16H16V44z M32,76h272v240H32V76z M151.352,394.4
		c-3.528,17.317-20.427,28.496-37.744,24.968c-12.62-2.571-22.469-12.458-24.992-25.088c-0.427-2.066-0.633-4.171-0.616-6.28
		c0-17.673,14.327-32,32-32s32,14.327,32,32C152.017,390.151,151.799,392.296,151.352,394.4L151.352,394.4z M423.352,394.4
		c-3.528,17.317-20.427,28.496-37.744,24.968c-12.62-2.571-22.469-12.458-24.992-25.088c-0.427-2.066-0.633-4.171-0.616-6.28
		c0-17.673,14.327-32,32-32s32,14.327,32,32C424.017,390.151,423.799,392.296,423.352,394.4z M464,380h-24.664
		c0-0.176-0.104-0.328-0.136-0.504c-0.437-2.433-1.065-4.827-1.88-7.16c-0.136-0.4-0.28-0.8-0.432-1.176
		c-0.85-2.299-1.88-4.527-3.08-6.664c-0.16-0.288-0.344-0.552-0.504-0.8c-1.284-2.196-2.74-4.288-4.352-6.256l-0.088-0.104
		c-1.633-1.945-3.421-3.757-5.344-5.416c-0.2-0.176-0.384-0.368-0.592-0.544c-1.876-1.57-3.868-2.996-5.96-4.264l-1.04-0.632
		c-2.098-1.207-4.282-2.255-6.536-3.136l-1.184-0.44c-2.345-0.849-4.752-1.515-7.2-1.992c-0.32-0.064-0.64-0.096-0.96-0.152
		c-5.327-0.971-10.785-0.971-16.112,0c-0.32,0.056-0.64,0.088-0.96,0.152c-2.448,0.477-4.855,1.143-7.2,1.992l-1.184,0.44
		c-2.254,0.881-4.438,1.929-6.536,3.136l-1.04,0.632c-2.092,1.268-4.084,2.694-5.96,4.264c-0.208,0.176-0.392,0.368-0.592,0.544
		c-1.923,1.659-3.711,3.471-5.344,5.416l-0.088,0.104c-1.612,1.968-3.068,4.06-4.352,6.256c-0.16,0.28-0.344,0.544-0.504,0.8
		c-1.2,2.137-2.23,4.365-3.08,6.664c-0.152,0.392-0.296,0.8-0.432,1.176c-0.815,2.333-1.443,4.727-1.88,7.16
		c0,0.176-0.104,0.328-0.136,0.504H167.336c0-0.176-0.104-0.328-0.136-0.504c-0.437-2.433-1.065-4.827-1.88-7.16
		c-0.136-0.4-0.28-0.8-0.432-1.176c-0.85-2.299-1.88-4.527-3.08-6.664c-0.16-0.288-0.344-0.552-0.504-0.8
		c-1.284-2.196-2.74-4.288-4.352-6.256l-0.088-0.104c-1.633-1.945-3.421-3.757-5.344-5.416c-0.2-0.176-0.384-0.368-0.592-0.544
		c-1.876-1.57-3.868-2.996-5.96-4.264l-1.04-0.632c-2.098-1.207-4.282-2.255-6.536-3.136l-1.184-0.44
		c-2.345-0.849-4.752-1.515-7.2-1.992c-0.32-0.064-0.64-0.096-0.96-0.152c-5.327-0.971-10.785-0.971-16.112,0
		c-0.32,0.056-0.64,0.088-0.96,0.152c-2.448,0.477-4.855,1.143-7.2,1.992l-1.184,0.44c-2.254,0.881-4.438,1.929-6.536,3.136
		l-1.04,0.632c-2.092,1.268-4.084,2.694-5.96,4.264c-0.208,0.176-0.392,0.368-0.592,0.544c-1.923,1.659-3.711,3.471-5.344,5.416
		l-0.088,0.104c-1.612,1.968-3.068,4.06-4.352,6.256c-0.16,0.28-0.344,0.544-0.504,0.8c-1.2,2.137-2.23,4.365-3.08,6.664
		c-0.152,0.392-0.296,0.8-0.432,1.176c-0.815,2.333-1.443,4.727-1.88,7.16c0,0.176-0.104,0.328-0.136,0.504H16v-48h448V380z"/>
	<path style="fill:#231F20;" d="M120,364c-13.255,0-24,10.745-24,24s10.745,24,24,24s24-10.745,24-24S133.255,364,120,364z M120,396
		c-4.418,0-8-3.582-8-8s3.582-8,8-8s8,3.582,8,8S124.418,396,120,396z"/>
	<path style="fill:#231F20;" d="M392,364c-13.255,0-24,10.745-24,24s10.745,24,24,24s24-10.745,24-24S405.255,364,392,364z M392,396
		c-4.418,0-8-3.582-8-8s3.582-8,8-8s8,3.582,8,8S396.418,396,392,396z"/>
	<path style="fill:#231F20;" d="M344,244h72c4.418,0,8-3.581,8.001-7.999c0-1.667-0.52-3.292-1.489-4.649l-40-56
		C381.01,173.248,378.585,172,376,172h-32c-4.418,0-8,3.582-8,8v56C336,240.418,339.582,244,344,244z M352,188h19.88l28.576,40H352
		V188z"/>
	<path style="fill:#231F20;" d="M168,92c-57.438,0-104,46.562-104,104s46.562,104,104,104s104-46.562,104-104
		C271.934,138.59,225.41,92.066,168,92z M168,284c-48.601,0-88-39.399-88-88s39.399-88,88-88s88,39.399,88,88
		C255.943,244.577,216.577,283.943,168,284z"/>
	<path style="fill:#231F20;" d="M144,140h-8c-13.255,0-24,10.745-24,24v8c0,4.418,3.582,8,8,8s8-3.582,8-8v-8c0-4.418,3.582-8,8-8h8
		c4.418,0,8,3.582,8,8v16.312c0.001,2.43-1.103,4.729-3,6.248l-34,27.2c-1.895,1.517-2.998,3.813-3,6.24v24c0,4.418,3.582,8,8,8h40
		c4.418,0,8-3.582,8-8s-3.582-8-8-8h-32v-12.16l31-24.8c5.698-4.544,9.012-11.44,9-18.728V164C168,150.745,157.255,140,144,140z"/>
	<path style="fill:#231F20;" d="M224,148c0.004-4.418-3.574-8.003-7.993-8.007c-3.037-0.003-5.813,1.714-7.167,4.431l-40,80
		c-1.975,3.952-0.372,8.757,3.58,10.732c1.112,0.555,2.337,0.844,3.58,0.844h32v8c0,4.418,3.582,8,8,8s8-3.582,8-8v-8h8
		c4.418,0,8-3.582,8-8s-3.582-8-8-8h-8V148z M208,220h-19.056L208,181.888V220z"/>
</g>
<g>
</g>
<g>
</g>
<g>
</g>
<g>
</g>
<g>
</g>
<g>
</g>
<g>
</g>
<g>
</g>
<g>
</g>
<g>
</g>
<g>
</g>
<g>
</g>
<g>
</g>
<g>
</g>
<g>
</g>
</svg>
