<svg id="Capa_1" enable-background="new 0 0 512.023 512.023" height="512" viewBox="0 0 512.023 512.023" width="512" xmlns="http://www.w3.org/2000/svg"><g><g><path d="m73.7 257.403 79.208-118.978h-57.481l-75.519 113.436c-2.212 3.323.17 7.771 4.162 7.771h45.467c1.674 0 3.236-.837 4.163-2.229z" fill="#c48d69"/></g><g><path d="m438.318 257.403-79.208-118.978h57.481l75.518 113.436c2.212 3.323-.17 7.771-4.162 7.771h-45.467c-1.673 0-3.235-.837-4.162-2.229z" fill="#c48d69"/></g><g><path d="m406.605 440.193h-301.178c-5.523 0-10-4.477-10-10v-291.768h321.178v291.768c0 5.523-4.477 10-10 10z" fill="#e2ae83"/></g><g><path d="m122.787 430.193v-291.768h-27.36v291.768c0 5.523 4.477 10 10 10h27.36c-5.523 0-10-4.477-10-10z" fill="#d39c72"/></g><g><path d="m412.131 334.253c-10.852 0-20.81 6.15-25.777 15.618-2.811-.885-5.728-1.333-8.712-1.333-7.768 0-15.071 3.024-20.568 8.52l-11.578 11.579c-7.679 7.675-10.372 19.07-7.186 29.28-9.47 4.964-15.624 14.924-15.624 25.78v16.38c0 .038.004.076.004.115h83.915c5.523 0 10-4.477 10-10v-95.94h-4.474z" fill="#d39c72"/></g><g><path d="m164.788 356.527h18.438c2.761 0 5-2.239 5-5v-49.912h12.262c4.52 0 6.72-5.521 3.439-8.63l-25.23-23.905c-1.88-1.781-4.808-1.832-6.749-.118l-27.065 23.905c-3.452 3.049-1.295 8.748 3.31 8.748h11.595v49.912c0 2.761 2.238 5 5 5z" fill="#f1f6f7"/></g><g><path d="m121.754 99.991 27.065-23.904c3.452-3.049 1.295-8.748-3.31-8.748h-11.595v-25.911h12.262c4.52 0 6.72-5.521 3.439-8.63l-25.23-23.904c-1.88-1.781-4.808-1.832-6.749-.118l-27.065 23.904c-3.452 3.049-1.295 8.748 3.31 8.748h11.595v25.911h-12.262c-4.52 0-6.72 5.521-3.439 8.63l25.23 23.904c1.88 1.781 4.808 1.832 6.749.118z" fill="#dc4955"/></g><g><path d="m411.605 37.383h-225.716c-2.761 0-5-2.239-5-5v-19.86c0-2.761 2.239-5 5-5h225.716c2.761 0 5 2.239 5 5v19.86c0 2.762-2.239 5-5 5z" fill="#9bb9c3"/></g><g><path d="m411.605 101.243h-225.716c-2.761 0-5-2.239-5-5v-19.86c0-2.761 2.239-5 5-5h225.716c2.761 0 5 2.239 5 5v19.86c0 2.762-2.239 5-5 5z" fill="#9bb9c3"/></g><g><path d="m206.329 32.383v-19.86c0-2.761 2.239-5 5-5h-25.44c-2.761 0-5 2.239-5 5v19.86c0 2.761 2.239 5 5 5h25.44c-2.761 0-5-2.238-5-5z" fill="#87a0af"/></g><g><path d="m206.329 96.243v-19.86c0-2.761 2.239-5 5-5h-25.44c-2.761 0-5 2.239-5 5v19.86c0 2.761 2.239 5 5 5h25.44c-2.761 0-5-2.238-5-5z" fill="#87a0af"/></g><g><g><path d="m492.956 440.078v-16.38c0-1.702-1.055-3.226-2.648-3.825l-13.56-5.102c-2.042-.768-3.674-2.35-4.505-4.367l-.026-.062c-.828-2.01-.789-4.273.108-6.254l5.979-13.193c.703-1.55.371-3.373-.833-4.577l-11.582-11.582c-1.203-1.203-3.027-1.535-4.577-.832l-13.193 5.98c-1.98.898-4.243.937-6.254.108l-.062-.026c-2.017-.831-3.599-2.463-4.367-4.505l-5.102-13.56c-.599-1.593-2.123-2.648-3.825-2.648h-16.38c-1.702 0-3.226 1.055-3.825 2.648l-5.102 13.56c-.768 2.042-2.35 3.674-4.367 4.505l-.062.026c-2.01.829-4.273.789-6.254-.108l-13.193-5.979c-1.55-.703-3.373-.371-4.577.833l-11.582 11.582c-1.203 1.203-1.535 3.027-.832 4.577l5.979 13.193c.898 1.98.937 4.243.108 6.254l-.026.062c-.831 2.017-2.463 3.599-4.505 4.367l-13.56 5.102c-1.593.599-2.648 2.123-2.648 3.825v16.38c0 1.702 1.055 3.226 2.648 3.825l13.56 5.102c2.042.768 3.674 2.35 4.505 4.367l.026.062c.829 2.01.789 4.273-.108 6.254l-5.979 13.193c-.703 1.55-.371 3.373.833 4.577l11.582 11.582c1.203 1.203 3.027 1.535 4.577.833l13.193-5.98c1.98-.897 4.243-.937 6.254-.108l.169.07c1.949.803 3.477 2.379 4.219 4.352l5.143 13.669c.599 1.593 2.123 2.648 3.825 2.648h16.38c1.702 0 3.226-1.055 3.825-2.648l5.102-13.56c.768-2.042 2.35-3.673 4.367-4.505l.172-.071c1.94-.8 4.124-.762 6.036.104l13.301 6.029c1.55.703 3.373.371 4.577-.833l11.582-11.582c1.203-1.203 1.535-3.027.832-4.577l-5.98-13.193c-.898-1.98-.937-4.243-.108-6.254l.026-.062c.831-2.017 2.463-3.599 4.505-4.367l13.56-5.102c1.594-.601 2.649-2.125 2.649-3.827zm-72.635 15.662c-13.173 0-23.852-10.679-23.852-23.852s10.679-23.852 23.852-23.852 23.852 10.679 23.852 23.852-10.679 23.852-23.852 23.852z" fill="#ffe17d"/></g></g><g><path d="m411.601 379.883c1.98.898 4.244.937 6.254.108l.062-.026c2.017-.831 3.599-2.463 4.367-4.505l5.102-13.56c.434-1.153 1.355-2.017 2.475-2.41-.427-.15-.88-.237-1.35-.237h-16.38c-1.702 0-3.226 1.055-3.825 2.648l-5.102 13.56c-.066.176-.146.345-.225.515z" fill="#ffd164"/></g><g><path d="m427.386 501.876-5.143-13.669c-.742-1.973-2.27-3.549-4.219-4.352l-.169-.07c-2.01-.828-4.273-.789-6.254.108l-8.616 3.905c.06.136.126.269.178.409l5.143 13.669c.599 1.593 2.123 2.648 3.825 2.648h16.38c.47 0 .923-.087 1.35-.237-1.12-.394-2.041-1.258-2.475-2.411z" fill="#ffd164"/></g><g><path d="m382.249 477.458c-1.203-1.203-1.535-3.027-.833-4.577l5.979-13.193c.897-1.98.937-4.244.108-6.254l-.026-.062c-.831-2.017-2.463-3.599-4.505-4.367l-13.56-5.102c-1.593-.599-2.648-2.123-2.648-3.825v-16.38c0-1.702 1.055-3.226 2.648-3.825l13.56-5.102c2.042-.768 3.674-2.35 4.505-4.367l.026-.062c.829-2.01.789-4.273-.108-6.254l-5.979-13.193c-.703-1.55-.371-3.373.833-4.577l7.632-7.632-10.553-4.783c-1.55-.703-3.373-.371-4.577.833l-11.583 11.582c-1.203 1.203-1.535 3.027-.832 4.577l5.979 13.193c.898 1.98.937 4.243.108 6.254l-.026.062c-.832 2.017-2.463 3.599-4.505 4.367l-13.56 5.102c-1.593.599-2.647 2.123-2.647 3.825v16.38c0 1.702 1.055 3.226 2.647 3.825l13.56 5.102c2.042.768 3.673 2.35 4.505 4.367l.026.062c.828 2.01.789 4.273-.108 6.254l-5.979 13.193c-.702 1.55-.371 3.373.833 4.577l11.583 11.582c1.203 1.203 3.027 1.535 4.577.833l10.553-4.783z" fill="#ffd164"/></g><g><g><path d="m420.321 455.74c-13.173 0-23.852-10.679-23.852-23.852s10.679-23.852 23.852-23.852 23.852 10.679 23.852 23.852-10.679 23.852-23.852 23.852z" fill="#fff9df"/></g></g><g><path d="m127.479 387.007c0 4.142 3.358 7.5 7.5 7.5h78.055c4.142 0 7.5-3.358 7.5-7.5s-3.358-7.5-7.5-7.5h-78.055c-4.142 0-7.5 3.358-7.5 7.5z"/><path d="m164.788 364.027h18.438c6.893 0 12.5-5.607 12.5-12.5v-42.412h4.762c5.148 0 9.706-3.09 11.612-7.872s.723-10.161-3.015-13.702l-25.229-23.903c-4.731-4.485-11.985-4.612-16.873-.296l-27.065 23.904c-3.932 3.472-5.272 8.886-3.416 13.792s6.445 8.077 11.691 8.077h4.095v42.412c0 6.892 5.607 12.5 12.5 12.5zm10.41-87.929 19.016 18.017h-5.989c-4.142 0-7.5 3.358-7.5 7.5v47.412h-13.438v-47.412c0-4.142-3.358-7.5-7.5-7.5h-4.987z"/><path d="m308.529 432.693h-203.102c-1.378 0-2.5-1.122-2.5-2.5v-86.146c0-4.142-3.358-7.5-7.5-7.5s-7.5 3.358-7.5 7.5v86.146c0 9.649 7.851 17.5 17.5 17.5h203.102c4.143 0 7.5-3.358 7.5-7.5s-3.358-7.5-7.5-7.5z"/><path d="m93.215 59.839c-5.148 0-9.707 3.09-11.612 7.873-1.906 4.782-.722 10.16 3.015 13.701l25.23 23.905c2.423 2.295 5.506 3.448 8.595 3.448 2.944 0 5.892-1.048 8.276-3.153 0 0 0 0 0-.001l27.065-23.904c3.931-3.473 5.272-8.887 3.416-13.792-1.856-4.906-6.445-8.076-11.691-8.076h-4.094v-10.912h4.761c5.148 0 9.707-3.09 11.612-7.873s.722-10.161-3.015-13.701l-25.229-23.904c-4.733-4.484-11.986-4.612-16.873-.295l-27.064 23.904c-3.932 3.473-5.273 8.886-3.417 13.792s6.445 8.077 11.691 8.077h4.095v10.912h-4.761zm12.261-25.911h-4.988l20.398-18.017 19.016 18.017h-5.988c-4.142 0-7.5 3.358-7.5 7.5v25.912c0 4.142 3.358 7.5 7.5 7.5h4.987l-20.398 18.017-19.015-18.018h5.988c4.142 0 7.5-3.358 7.5-7.5v-25.911c0-4.142-3.358-7.5-7.5-7.5z"/><path d="m185.889 44.883h225.716c6.893 0 12.5-5.607 12.5-12.5v-19.86c0-6.893-5.607-12.5-12.5-12.5h-225.716c-6.893 0-12.5 5.607-12.5 12.5v19.86c0 6.893 5.607 12.5 12.5 12.5zm2.5-29.86h220.716v14.86h-220.716z"/><path d="m185.889 108.744h225.716c6.893 0 12.5-5.607 12.5-12.5v-19.86c0-6.893-5.607-12.5-12.5-12.5h-225.716c-6.893 0-12.5 5.607-12.5 12.5v19.86c0 6.892 5.607 12.5 12.5 12.5zm2.5-29.861h220.716v14.86h-220.716z"/><path d="m420.321 400.536c-17.287 0-31.352 14.064-31.352 31.352s14.064 31.352 31.352 31.352 31.353-14.064 31.353-31.352-14.065-31.352-31.353-31.352zm0 47.704c-9.017 0-16.352-7.335-16.352-16.352s7.335-16.352 16.352-16.352 16.353 7.335 16.353 16.352-7.337 16.352-16.353 16.352z"/><path d="m492.949 412.854-13.561-5.103c-.096-.036-.172-.11-.237-.269-.039-.095-.037-.204.006-.298l5.98-13.194c1.979-4.368 1.03-9.582-2.361-12.975l-11.585-11.585c-3.393-3.39-8.608-4.337-12.974-2.358l-13.193 5.979c-.095.044-.203.045-.363-.021-.094-.039-.168-.116-.204-.211l-5.102-13.562c-1.69-4.489-6.048-7.505-10.845-7.505h-4.406v-102.165l7.97 11.971c2.323 3.49 6.213 5.574 10.406 5.574h45.467c4.616 0 8.839-2.528 11.019-6.598s1.945-8.985-.613-12.83l-75.378-113.225c-1.323-2.131-3.677-3.554-6.37-3.554h-321.178c-1.709 0-3.279.578-4.54 1.54-.012.009-.024.018-.036.027-.302.234-.587.488-.85.764-.035.037-.068.076-.103.114-.256.28-.496.574-.708.891-.002.003-.005.005-.007.008l-75.518 113.436c-2.559 3.843-2.794 8.759-.614 12.829s6.402 6.598 11.019 6.598h45.467c4.192 0 8.082-2.083 10.405-5.572l7.984-11.993v58.257c0 4.142 3.358 7.5 7.5 7.5s7.5-3.358 7.5-7.5v-161.899h306.178v206.244c-3.528.966-6.494 3.572-7.818 7.091l-5.102 13.559c-.036.096-.111.174-.268.238-.095.039-.205.039-.3-.005l-13.193-5.98c-4.37-1.979-9.583-1.03-12.977 2.361l-11.58 11.582c-3.394 3.391-4.343 8.606-2.362 12.977l5.979 13.192c.043.095.045.205-.021.363-.039.094-.115.168-.211.205l-13.561 5.102c-4.49 1.689-7.507 6.047-7.507 10.845v16.38c0 4.797 3.017 9.156 7.507 10.844l13.561 5.103c.096.036.173.11.236.266.04.097.038.207-.005.301l-5.98 13.194c-1.979 4.37-1.03 9.585 2.361 12.975l11.585 11.585c3.392 3.39 8.607 4.337 12.974 2.358l13.194-5.98c.093-.042.201-.044.306-.002l.22.126 5.143 13.67c1.69 4.489 6.048 7.505 10.845 7.505h16.38c4.797 0 9.154-3.016 10.845-7.506l5.102-13.56c.036-.096.11-.173.221-.218l.238-.063 13.301 6.028c4.366 1.981 9.581 1.032 12.978-2.36l11.583-11.583c3.391-3.392 4.339-8.606 2.359-12.975l-5.98-13.196c-.042-.093-.044-.2.021-.36.039-.094.115-.168.211-.204l13.561-5.102c4.49-1.689 7.507-6.047 7.507-10.845v-16.38c-.001-4.799-3.017-9.158-7.508-10.846zm-424.75-160.722h-39.461l59.189-88.907v59.274zm375.621 0-19.715-29.614v-59.274l59.175 88.887h-39.46zm41.636 185.584-11.349 4.27c-3.975 1.495-7.182 4.604-8.823 8.589-1.612 3.91-1.535 8.361.211 12.21l5.004 11.041-8.241 8.241-11.15-5.054c-3.779-1.713-8.15-1.789-12.004-.201l-.155.064c-3.926 1.617-7.035 4.824-8.53 8.798l-4.27 11.349h-11.655l-4.311-11.458c-1.469-3.904-4.523-7.055-8.388-8.648l-.162-.066c-3.908-1.612-8.359-1.535-12.207.211l-11.042 5.004-8.241-8.242 5.004-11.042c1.745-3.85 1.822-8.298.187-12.269-1.617-3.926-4.824-7.035-8.799-8.529l-11.349-4.27v-11.655l11.349-4.27c3.974-1.495 7.182-4.604 8.824-8.592 1.61-3.908 1.533-8.357-.212-12.207l-5.004-11.041 8.241-8.241 11.041 5.004c3.851 1.744 8.298 1.821 12.27.185 3.925-1.617 7.033-4.824 8.529-8.798l4.27-11.349h11.655l4.27 11.35c1.496 3.974 4.605 7.181 8.591 8.822 3.905 1.611 8.355 1.534 12.207-.211l11.042-5.004 8.241 8.242-5.004 11.041c-1.746 3.852-1.822 8.302-.187 12.268 1.617 3.926 4.824 7.036 8.799 8.53l11.349 4.27v11.658z"/></g></g></svg>