<svg id="Capa_1" enable-background="new 0 0 512 512" height="512" viewBox="0 0 512 512" width="512" xmlns="http://www.w3.org/2000/svg"><g><g><path d="m203.099 0v305.597l71.742-51.538h82.708l16.064-120.949-16.064-133.11z" fill="#eef9ff"/><path d="m357.549 0h154.451v254.059h-154.451z" fill="#b9eafa"/></g><g><g><path d="" fill="#e50070"/></g><g><path d="m373.589 87.517c-.447-8.618-7.452-15.519-16.04-15.931v33.693c4.357-.207 8.39-2.03 11.423-5.225 3.221-3.392 4.861-7.845 4.617-12.537z" fill="none"/><g fill="#fd3e81"><path d="m310.295 81.917c-.299 2.148-.451 4.341-.451 6.518h30c0-.796.055-1.596.164-2.374 1.178-8.443 8.533-14.684 17.077-14.507.157.003.309.024.465.032l8.355-15.749-8.355-14.277c-23.698-.412-43.983 16.916-47.255 40.357z"/><path d="m356.729 105.32h-15v48.341h15.82l8.032-25.384-8.032-22.998c-.273.013-.544.041-.82.041z"/><path d="m341.729 189.603c.364 8.127 6.591 15 15 15 .275 0 .547-.028.82-.045l7.096-14.955-7.096-14.958c-.273-.015-.542-.042-.82-.042-7.846 0-15.363 6.899-15 15z"/></g><path d="m403.549 85.961c-1.266-24.405-21.411-43.909-45.86-44.401-.047-.001-.093.001-.14 0v30.026c8.588.412 15.593 7.313 16.04 15.931.244 4.692-1.396 9.145-4.617 12.537-3.033 3.195-7.067 5.018-11.423 5.225v48.382h14.18v-20.825c7.161-2.427 13.722-6.567 19-12.126 8.942-9.418 13.495-21.759 12.82-34.749z" fill="#e50070"/><path d="m371.729 189.603c-.352-7.858-6.192-14.525-14.18-14.958v29.914c7.541-.459 14.53-7.139 14.18-14.956z" fill="#e50070"/></g></g><g><g><path d="m158.737 292.256v-146.306h-61.487l-12.007 73.153 12.007 73.153z" fill="#ffc31a"/></g><g><path d="m365.904 353.212h-146.234v61.617l73.117 18.177 73.117-18.177z" fill="#ff9b00"/><g><path d="m97.245 314.272v-168.322h-22.245c-41.421 0-75 33.579-75 75v84.778c0 56.961 23.088 108.529 60.416 145.857l55.873-8.67 10.323-57.526c-18.147-18.229-29.367-43.36-29.367-71.117z" fill="#ffe673"/><path d="m126.612 385.388-66.196 66.196c37.328 37.328 88.896 60.416 145.856 60.416h84.632c41.421 0 75-33.579 75-75v-22.171l-167.709.246c-27.972.041-53.295-11.317-71.583-29.687z" fill="#ffc31a"/></g></g></g></g></svg>